<svg height="512" viewBox="0 0 64 64" width="512" xmlns="http://www.w3.org/2000/svg"><path d="m9 39h10v22h-10z" fill="#006df0"/><path d="m3 41h6v18h-6z" fill="#57a4ff"/><path d="m55.37 25a13.361 13.361 0 0 1 -.79 1.92l3.98 3.98-5.66 5.66-3.98-3.98a13.361 13.361 0 0 1 -1.92.79v5.63h-8v-5.63a13.361 13.361 0 0 1 -1.92-.79l-3.98 3.98-5.66-5.66 3.98-3.98a13.361 13.361 0 0 1 -.79-1.92h-5.63v-8h5.63a13.361 13.361 0 0 1 .79-1.92l-3.98-3.98 5.66-5.66 3.98 3.98a13.361 13.361 0 0 1 1.92-.79v-5.63h8v5.63a13.361 13.361 0 0 1 1.92.79l3.98-3.98 5.66 5.66-3.98 3.98a13.361 13.361 0 0 1 .79 1.92h5.63v8z" fill="#ffb655"/><circle cx="43" cy="21" fill="#df2a47" r="7"/><circle cx="43" cy="21" fill="#ff3051" r="5"/><circle cx="14" cy="56" fill="#f1f2f2" r="2"/><path d="m33 47.016 9.936 2.662a3 3 0 0 0 3.674-2.121 3 3 0 0 0 -2.121-3.675l-13.622-3.65a3.994 3.994 0 0 0 -1.75-.071l-10.117 1.839v15l16.584 1.843a4 4 0 0 0 2.612-.616l21.254-13.727a3.006 3.006 0 0 0 1.1-4.1 3.014 3.014 0 0 0 -4.1-1.1l-10.2 5.89" fill="#ffbcab"/><path d="m7 41h2v18h-2z" fill="#2488ff"/><path d="m42 6h2v2h-2z"/><path d="m32.101 10.101h2v2h-2z" transform="matrix(.707 -.707 .707 .707 1.846 26.657)"/><path d="m55.95 38.434-9.481 5.475a3.94 3.94 0 0 0 -1.721-.992l-13.622-3.65a5.023 5.023 0 0 0 -2.188-.09l-8.938 1.623v-1.8a1 1 0 0 0 -1-1h-10a1 1 0 0 0 -1 1v1h-5a1 1 0 0 0 -1 1v18a1 1 0 0 0 1 1h5v1a1 1 0 0 0 1 1h10a1 1 0 0 0 1-1v-2.883l15.474 1.72a5.015 5.015 0 0 0 3.265-.77l21.211-13.7a3.962 3.962 0 0 0 2-3.466 4 4 0 0 0 -6-3.466zm-51.95 19.566v-16h4v16zm14 2h-8v-20h8zm40.907-16.34-21.254 13.727a3.021 3.021 0 0 1 -1.959.462l-15.694-1.744v-13.27l9.3-1.69a2.982 2.982 0 0 1 1.312.053l13.622 3.65a2 2 0 1 1 -1.036 3.864l-9.939-2.662a1 1 0 1 0 -.518 1.931l9.936 2.663a4 4 0 0 0 4.9-2.829 3.967 3.967 0 0 0 -.051-2.206l9.42-5.44a2 2 0 1 1 1.962 3.491z"/><path d="m61 16h-4.921c-.09-.235-.187-.471-.294-.71l3.482-3.483a1 1 0 0 0 0-1.414l-5.66-5.66a1 1 0 0 0 -1.414 0l-3.482 3.482c-.239-.107-.476-.2-.711-.294v-4.921a1 1 0 0 0 -1-1h-8a1 1 0 0 0 -1 1v4.921c-.235.09-.472.187-.711.294l-3.482-3.482a1 1 0 0 0 -1.414 0l-5.66 5.66a1 1 0 0 0 0 1.414l3.482 3.482c-.107.239-.2.476-.294.711h-4.921a1 1 0 0 0 -1 1v8a1 1 0 0 0 1 1h4.921c.09.235.187.472.294.711l-3.482 3.482a1 1 0 0 0 0 1.414l5.66 5.66a1 1 0 0 0 1.414 0l3.482-3.482c.239.107.476.2.711.294v4.921a1 1 0 0 0 1 1h8a1 1 0 0 0 1-1v-4.921c.235-.09.472-.187.711-.294l3.482 3.482a1.029 1.029 0 0 0 1.414 0l5.66-5.66a1 1 0 0 0 0-1.414l-3.482-3.483c.107-.239.2-.475.294-.71h4.921a1 1 0 0 0 1-1v-8a1 1 0 0 0 -1-1zm-1 8h-4.63a1 1 0 0 0 -.953.7 12.328 12.328 0 0 1 -.731 1.776 1 1 0 0 0 .187 1.154l3.273 3.27-4.246 4.246-3.273-3.273a1 1 0 0 0 -1.154-.187 12.323 12.323 0 0 1 -1.776.731 1 1 0 0 0 -.7.953v4.63h-5.997v-4.63a1 1 0 0 0 -.7-.953 12.323 12.323 0 0 1 -1.776-.731 1 1 0 0 0 -1.154.187l-3.27 3.273-4.246-4.246 3.273-3.273a1 1 0 0 0 .187-1.154 12.323 12.323 0 0 1 -.731-1.776 1 1 0 0 0 -.953-.7h-4.63v-5.997h4.63a1 1 0 0 0 .953-.7 12.323 12.323 0 0 1 .731-1.776 1 1 0 0 0 -.187-1.154l-3.273-3.27 4.246-4.246 3.273 3.273a1 1 0 0 0 1.154.187 12.323 12.323 0 0 1 1.773-.731 1 1 0 0 0 .7-.953v-4.63h6v4.63a1 1 0 0 0 .7.953 12.323 12.323 0 0 1 1.776.731 1 1 0 0 0 1.154-.187l3.27-3.273 4.246 4.246-3.273 3.273a1 1 0 0 0 -.187 1.154 12.328 12.328 0 0 1 .731 1.776 1 1 0 0 0 .953.7h4.63z"/><path d="m43 13a8 8 0 1 0 8 8 8.009 8.009 0 0 0 -8-8zm0 14a6 6 0 1 1 6-6 6.006 6.006 0 0 1 -6 6z"/><path d="m14 59a3 3 0 1 0 -3-3 3 3 0 0 0 3 3zm0-4a1 1 0 1 1 -1 1 1 1 0 0 1 1-1z"/><path d="m28 20h2v2h-2z"/><path d="m32.101 29.9h2v2h-2z" transform="matrix(.707 -.707 .707 .707 -12.154 32.456)"/><path d="m42 34h2v2h-2z"/><path d="m51.9 29.9h2v2h-2z" transform="matrix(.707 -.707 .707 .707 -6.355 46.456)"/><path d="m56 20h2v2h-2z"/><path d="m51.9 10.101h2v2h-2z" transform="matrix(.707 -.707 .707 .707 7.645 40.657)"/></svg>