<svg id="Icons" enable-background="new 0 0 512 512" height="512" viewBox="0 0 512 512" width="512" xmlns="http://www.w3.org/2000/svg"><g><g><circle cx="256" cy="256" fill="#e52e44" r="256"/><circle cx="256" cy="256" fill="#fa4654" r="205.642"/></g><g><g><path d="m382.557 331.268-20.197 20.197c-.296.296-.608.567-.929.807-3.876 2.855-9.539 1.736-11.934-2.65l-19.538-35.665 15.095-15.095 9.468 5.188 26.198 14.35c4.748 2.604 5.667 9.038 1.837 12.868z" fill="#098955"/><path d="m382.557 331.268-20.197 20.197c-.296.296-.608.567-.929.807l-16.012-29.229c-2.075-3.787-1.402-8.489 1.652-11.542l7.451-7.451 26.198 14.35c4.748 2.604 5.667 9.038 1.837 12.868z" fill="#14a36d"/></g><g><g><path d="m293.946 231.102v32.013h-32.013c-67.526 0-122.267-54.741-122.267-122.267l.006-32.007 17.146-.006h14.861c67.526-.001 122.267 54.741 122.267 122.267z" fill="#51c441"/><path d="m293.946 231.102v2.058l-2.015.437c-65.973 14.355-131.102-27.497-145.464-93.476l-6.796-31.28 17.146-.006h14.861c67.527-.001 122.268 54.741 122.268 122.267z" fill="#65e856"/><ellipse cx="187.772" cy="132.29" fill="#92f784" rx="12.851" ry="21.942" transform="matrix(.507 -.862 .862 .507 -21.466 227.046)"/></g><g><path d="m305.343 264.799 10.806 18.721 2.461 4.259-22.98 13.267c-48.468 27.98-110.448 11.378-138.432-37.095l-13.267-22.98 15.902-9.182 7.078-4.085c48.468-27.98 110.448-11.378 138.432 37.095z" fill="#65e856"/><path d="m305.343 264.799 10.806 18.721-7.073 4.08c-48.473 27.985-110.448 11.378-138.432-37.095l-10.811-18.716 7.078-4.085c48.468-27.98 110.448-11.378 138.432 37.095z" fill="#92f784"/><ellipse cx="208.13" cy="235.315" fill="#cfffc7" rx="23.068" ry="12.398" transform="matrix(.994 -.11 .11 .994 -24.586 24.283)"/></g><g><path d="m295.632 274.514 18.721 10.806 4.259 2.461 13.267-22.98c27.98-48.468 11.378-110.448-37.095-138.432l-22.98-13.267-9.182 15.902-4.085 7.078c-27.98 48.467-11.378 110.447 37.095 138.432z" fill="#51c441"/><path d="m295.632 274.514 18.721 10.806 4.08-7.073c27.985-48.473 11.378-110.448-37.095-138.432l-18.716-10.811-4.085 7.078c-27.98 48.467-11.378 110.447 37.095 138.432z" fill="#65e856"/><ellipse cx="266.147" cy="177.3" fill="#92f784" rx="23.068" ry="12.398" transform="matrix(.11 -.994 .994 .11 60.689 422.364)"/></g><g><path d="m318.611 261.245v26.534h-26.534c-55.969 0-101.342-45.373-101.342-101.342l.005-26.529 14.212-.005h12.317c55.969-.001 101.342 45.372 101.342 101.342z" fill="#65e856"/><path d="m318.611 261.245v1.706l-1.67.363c-54.683 11.899-108.666-22.791-120.569-77.479l-5.633-25.927 14.212-.005h12.317c55.97-.001 101.343 45.372 101.343 101.342z" fill="#92f784"/><ellipse cx="230.607" cy="179.344" fill="#cfffc7" rx="10.652" ry="18.187" transform="matrix(.507 -.862 .862 .507 -40.907 287.158)"/></g><g><path d="m318.611 287.779 18.762 18.762-18.762 18.762c-39.577 39.577-103.743 39.572-143.314 0l-18.762-18.762 18.762-18.762c39.576-39.577 103.737-39.577 143.314 0z" fill="#098955"/><path d="m318.611 287.779 18.762 18.762-5.52 5.52c-39.577 39.577-103.743 39.572-143.314 0l-18.763-18.761 5.52-5.52c39.577-39.578 103.738-39.578 143.315-.001z" fill="#14a36d"/><g fill="#15be79"><ellipse cx="221.495" cy="286.069" rx="25.914" ry="14.371" transform="matrix(.983 -.183 .183 .983 -48.587 45.338)"/><ellipse cx="273.035" cy="288.919" rx="7.943" ry="18.661" transform="matrix(.259 -.966 .966 .259 -76.706 477.873)"/></g></g><g><path d="m318.611 287.779 18.762 18.762 18.762-18.762c39.577-39.577 39.572-103.743 0-143.314l-18.762-18.762-18.762 18.762c-39.577 39.577-39.577 103.737 0 143.314z" fill="#14a36d"/><path d="m318.611 287.779 18.762 18.762 5.52-5.52c39.577-39.577 39.572-103.743 0-143.314l-18.762-18.762-5.52 5.52c-39.577 39.577-39.577 103.737 0 143.314z" fill="#15be79"/><g fill="#27e090"><ellipse cx="316.9" cy="190.664" rx="25.914" ry="14.371" transform="matrix(.183 -.983 .983 .183 71.49 467.345)"/><ellipse cx="319.751" cy="242.203" rx="7.943" ry="18.661" transform="matrix(.966 -.259 .259 .966 -51.792 91.01)"/></g></g></g></g><g><path d="m393.4 366.25c-.19.23-.41.47-.66.71l-.25.25c-6.81 6.83-12.71 13.39-18.01 19.66-38.32 45.3-45.38 75.06-138.76 75.06-55.23 0-64.4 6.59-76.03 31.33-3.64-1.48-7.23-3.03-10.78-4.68-17.71-8.16-34.33-18.29-49.58-30.12-4.27-3.3-8.43-6.73-12.48-10.31 16.35-16.34 32.96-32.95 48.34-48.33 63.75-63.74 84.9-50.57 96.35-50.57 5.95 0 14.93-5.47 22.17-10.73 6.69-4.84 11.9-9.5 11.9-9.5 3.62-3.62 6.98-5.55 9.92-6.19 8-1.74 12.97 5.98 12.09 14.83-.46 4.63-2.5 9.56-6.56 13.62-5.72 5.71-48.38 30.97-48.38 30.97s15.91 0 32.41 0h31.53c23.36 0 43.27-52.06 65.49-52.06 11.61 0 17.15 2.93 19.79 5.73 2.42 2.55 2.42 4.99 2.42 4.99l-2.56 3.07v.01l-.08.09-.31.38-.08.1-8.27 9.92h.05.01c.05.01.13.01.24.01h.01c1.91.13 12.07.92 17.81 3.69 3.64 1.77 5.49 4.35 2.26 8.07z" fill="#eea47d"/><path d="m390.44 364.93c-.44-.18-.88-.36-1.31-.53h-.01s0-.01-.01-.01c-.01-.01-.02-.01-.04-.01-.73-.29-1.45-.56-2.14-.82-.09-.03-.18-.06-.26-.1 0 0-.01 0-.02 0-2.07-.75-3.84-1.32-4.97-1.7-5.74-1.95-13.28-1.14-13.28-1.14l4.7-5.85.01-.02.21-.26 7.72-9.6.07-.1.18-.23.08-.1.31-.38c-.59-.47-1.33-1.08-2.2-1.65-.01-.01-.01-.01-.02-.02-.01 0-.01 0-.02-.01-.61-.4-1.28-.78-2.03-1.09-1.07-.45-2.29-.75-3.65-.75-22.21 0-45.86 56.55-69.22 56.55-15.48 0-63.93 0-63.93 0s12.23-7.25 24.48-14.86c-16.5 0-32.41 0-32.41 0s42.66-25.26 48.38-30.97c4.06-4.06 6.1-8.99 6.56-13.62-3.75-.85-8.61.74-14.09 6.22 0 0-22.62 20.23-34.07 20.23s-32.6-13.17-96.34 50.56l-43.79 43.79c15.25 11.83 31.87 21.96 49.58 30.12 3.55 1.65 7.14 3.2 10.78 4.68 11.63-24.74 20.8-31.33 76.03-31.33 93.38 0 100.44-29.76 138.76-75.06 5.3-6.27 11.2-12.83 18.01-19.66l.25-.25c.25-.24.47-.48.66-.71-.98-.47-1.97-.91-2.96-1.32z" fill="#d48d77"/><path d="m391.14 358.18c-.86 1.07-1.75 2.19-2.67 3.38-.51.66-1.02 1.32-1.52 1.97v.01c-.01.01-.02.02-.02.02-5.52 7.13-10.74 13.72-15.7 19.79-52.04 63.69-75.41 71.07-118.15 71.07-82.45 0-91.96 5.24-104.17 34.16 3.55 1.65 7.14 3.2 10.78 4.68 11.63-24.74 20.8-31.33 76.03-31.33 93.38 0 100.44-29.76 138.76-75.06 5.3-6.27 11.2-12.83 18.01-19.66l.25-.25c.25-.24.47-.48.66-.71 3.23-3.72 1.38-6.3-2.26-8.07z" fill="#eea47d"/><path d="m384.32 340.911-2.551 3.075-.007.007-.39.468-.078.099-8.226 9.92-8.247 9.948-26.521 31.99c-12.109 12.116-24.254 25.961-43.37 25.961 0 0 31.63-14.341 45.191-33.677 5.406-7.709 13.533-18.132 21.356-27.874 0-.007 0-.007.007-.014l.418-.517c5.484-6.823 10.784-13.278 14.851-18.188l.39-.475h.007c.085-.106.17-.213.262-.319 1.8-2.175 3.33-4.01 4.492-5.399 2.416 2.557 2.416 4.995 2.416 4.995z" fill="#eea47d"/><path d="m274.538 335.313-5.194 5.194c-3.769 3.77-9.884 3.77-13.654 0l-1.778-1.778c-.064-.064-.135-.135-.198-.206 6.689-4.839 11.896-9.502 11.896-9.502 3.621-3.621 6.979-5.548 9.92-6.193 2.742 3.77 2.409 9.084-.992 12.485z" fill="#f3c3b1"/><path d="m382.066 344.267c-3.769-3.769-9.881-3.769-13.65 0l-5.193 5.193c-3.769 3.769-4.653 10.467 1.613 14.975z" fill="#f5b890"/><path d="m381.77 343.999c-1.343-1.237-2.945-2.032-4.626-2.369l-15.658 19.184c.798 1.472 1.543 2.517 3.349 3.62z" fill="#f3c3b1"/><path d="m392.49 367.212c-6.809 6.83-12.711 13.392-18.011 19.662-.071-.071-.142-.135-.213-.205l-1.778-1.778c-.128-.128-.255-.262-.368-.397-.213-.234-.411-.475-.595-.723-.099-.142-.198-.283-.291-.425-2.452-3.741-2.034-8.821 1.254-12.109l5.194-5.194c2.437-2.437 5.846-3.295 8.97-2.586.007 0 .014.007.014.007.092.021.191.043.283.071.744.191 1.474.475 2.161.857.007 0 .007.007.014.007.007-.007.007-.007.007 0 .05.021.092.05.135.078.326.177.638.383.942.602.071.057.135.106.205.156.113.092.227.177.333.269.071.064.149.128.22.198.12.106.241.22.361.34z" fill="#f5b890"/><path d="m392.49 367.212c-6.809 6.83-12.711 13.392-18.011 19.662-.071-.071-.142-.135-.213-.205l-1.778-1.778c-.128-.128-.255-.262-.368-.397-.213-.234-.411-.475-.595-.723-.099-.142-.198-.283-.291-.425 4.953-6.065 10.182-12.655 15.694-19.783h.007c0-.007.007-.014.014-.021.73.191 1.445.468 2.126.836.014 0 .021.007.035.014.007 0 .007.007.014.007.05.028.099.05.142.078.326.184.638.383.942.602.071.057.135.106.205.156.113.092.227.177.333.269.071.064.149.128.22.198.12.106.241.22.361.34z" fill="#f3c3b1"/></g></g></svg>